Coordinates
version=1
nRows=16
nColumns=63
inDegrees=yes

Units are S.I. units (second, meters, Newtons, ...)
If the header above contains a line with 'inDegrees', this indicates whether rotational values are in degrees (yes) or radians (no).

endheader
time	pelvis_tilt	pelvis_list	pelvis_rotation	pelvis_tx	pelvis_ty	pelvis_tz	hip_flexion_r	hip_adduction_r	hip_rotation_r	knee_angle_r	knee_angle_r_beta	ankle_angle_r	subtalar_angle_r	mtp_angle_r	hip_flexion_l	hip_adduction_l	hip_rotation_l	knee_angle_l	knee_angle_l_beta	ankle_angle_l	subtalar_angle_l	mtp_angle_l	L5_S1_Flex_Ext	L5_S1_Lat_Bending	L5_S1_axial_rotation	L4_L5_Flex_Ext	L4_L5_Lat_Bending	L4_L5_axial_rotation	L3_L4_Flex_Ext	L3_L4_Lat_Bending	L3_L4_axial_rotation	L2_L3_Flex_Ext	L2_L3_Lat_Bending	L2_L3_axial_rotation	L1_L2_Flex_Ext	L1_L2_Lat_Bending	L1_L2_axial_rotation	L1_T12_Flex_Ext	L1_T12_Lat_Bending	L1_T12_axial_rotation	Abs_r3	Abs_r2	Abs_r1	Abs_t1	Abs_t2	neck_flexion	neck_bending	neck_rotation	arm_flex_r	arm_add_r	arm_rot_r	elbow_flex_r	pro_sup_r	wrist_flex_r	wrist_dev_r	arm_flex_l	arm_add_l	arm_rot_l	elbow_flex_l	pro_sup_l	wrist_flex_l	wrist_dev_l
0.000000	3.014668	-6.328382	89.072274	0.211718	0.741400	0.808685	9.876965	-0.880103	26.792365	0.541348	0.009448	25.124018	-17.011715	0.000000	13.540739	-3.531760	-15.971251	12.183571	0.212643	39.921431	13.881172	0.000000	0.558265	0.137784	1.470596	1.036753	0.183253	1.562509	0.917173	0.335008	1.562509	0.638041	0.335008	1.286772	0.518404	0.280969	1.194860	0.318992	0.213428	1.102947	3.987628	1.558641	8.179016	0.000000	0.000000	28.259950	3.797883	16.024275	18.781834	6.451189	176.579051	2.014943	1.798633	-1.824958	-10.438380	19.383940	10.396313	173.987113	5.378626	1.663751	-3.610265	-11.758308
0.020408	2.990813	-6.400950	89.706480	0.210957	0.740751	0.809583	9.853998	-1.014273	26.379749	0.532566	0.009295	25.372283	-17.094069	0.000000	13.819654	-3.384933	-15.449571	12.303370	0.214734	40.159272	14.321762	0.000000	0.557306	0.124830	1.317456	1.034973	0.166024	1.399797	0.915598	0.303513	1.399797	0.636945	0.303513	1.152774	0.517515	0.254554	1.070433	0.318445	0.193362	0.988092	3.980782	1.412106	7.327293	0.000000	0.000000	28.273081	4.139931	14.783040	18.902711	6.691797	178.912929	1.576661	2.210074	-2.874595	-10.516634	19.880966	9.266797	161.082471	8.082924	2.917546	-3.625380	-11.855152
0.040816	2.964111	-6.435665	90.149228	0.210474	0.740313	0.810084	9.815404	-1.119272	26.089701	0.521623	0.009104	25.601531	-17.136870	0.000000	13.974567	-3.266548	-15.071591	12.343157	0.215429	40.343713	14.664065	0.000000	0.557258	0.113078	1.214163	1.034884	0.150394	1.290049	0.915520	0.274938	1.290049	0.636890	0.274938	1.062393	0.517470	0.230588	0.986508	0.318417	0.175158	0.910623	3.980440	1.279160	6.752813	0.000000	0.000000	28.285847	4.366337	13.636894	18.982742	6.880254	180.955680	1.229861	2.578875	-3.803183	-10.582792	20.247679	8.471830	152.159853	10.044826	3.872649	-3.696260	-11.919962
0.061224	2.935446	-6.436012	90.422950	0.210235	0.740065	0.810226	9.761967	-1.197843	25.907664	0.509020	0.008884	25.812984	-17.144481	0.000000	14.018084	-3.173297	-14.815563	12.310978	0.214867	40.478478	14.911196	0.000000	0.557962	0.102486	1.155047	1.036191	0.136306	1.227237	0.916675	0.249184	1.227237	0.637694	0.249184	1.010666	0.518123	0.208989	0.938476	0.318819	0.158750	0.866285	3.985465	1.159338	6.424025	0.000000	0.000000	28.298155	4.489186	12.581900	19.025919	7.021712	182.724823	0.966164	2.905952	-4.616505	-10.638780	20.495797	7.975553	146.801868	11.340418	4.558969	-3.816003	-11.954406
0.081633	2.905697	-6.405476	90.550078	0.210206	0.739986	0.810048	9.694468	-1.252729	25.819085	0.495257	0.008644	26.007861	-17.121265	0.000000	13.962814	-3.101874	-14.659741	12.214881	0.213190	40.567292	15.066269	0.000000	0.559258	0.093013	1.134433	1.038598	0.123707	1.205335	0.918805	0.226151	1.205335	0.639176	0.226151	0.992629	0.519327	0.189671	0.921727	0.319560	0.144077	0.850825	3.994723	1.052177	6.309378	0.000000	0.000000	28.309911	4.520564	11.614119	19.036236	7.121321	184.237875	0.777186	3.192218	-5.320342	-10.686523	20.637039	7.742106	144.591125	12.045784	5.006414	-3.977705	-11.960154
0.102041	2.875747	-6.347542	90.553043	0.210356	0.740056	0.809588	9.613689	-1.286674	25.809409	0.480834	0.008392	26.187382	-17.071585	0.000000	13.821363	-3.048971	-14.582381	12.062912	0.210538	40.613879	15.132398	0.000000	0.560988	0.084618	1.146650	1.041810	0.112541	1.218315	0.921647	0.205739	1.218315	0.641153	0.205739	1.003319	0.520933	0.172552	0.931653	0.320548	0.131073	0.859987	4.007079	0.957212	6.377322	0.000000	0.000000	28.321023	4.472555	10.729614	19.017688	7.184233	185.512357	0.654546	3.438588	-5.920476	-10.727944	20.683121	7.735627	145.110231	12.237009	5.244894	-4.174463	-11.938874
0.122449	2.846479	-6.265696	90.454276	0.210650	0.740254	0.808885	9.520413	-1.302420	25.864080	0.466250	0.008138	26.352769	-16.999806	0.000000	13.606340	-3.011281	-14.561736	11.863118	0.207050	40.621964	15.112699	0.000000	0.562992	0.077260	1.186023	1.045533	0.102756	1.260150	0.924940	0.187849	1.260150	0.643444	0.187849	1.037770	0.522795	0.157548	0.963644	0.321694	0.119675	0.889517	4.021398	0.873978	6.596305	0.000000	0.000000	28.331399	4.357245	9.924447	18.974269	7.215599	186.565787	0.589863	3.645975	-6.422689	-10.764969	20.645763	7.920258	147.941796	11.990179	5.304315	-4.399372	-11.892236
0.142857	2.818773	-6.163423	90.276211	0.211055	0.740559	0.807978	9.415422	-1.302712	25.968545	0.452006	0.007889	26.505242	-16.910289	0.000000	13.330352	-2.985497	-14.576060	11.623545	0.202869	40.595272	15.010285	0.000000	0.565113	0.070898	1.246881	1.049471	0.094294	1.324811	0.928424	0.172381	1.324811	0.645868	0.172381	1.091021	0.524764	0.144575	1.013091	0.322906	0.109821	0.935161	4.036545	0.802012	6.934776	0.000000	0.000000	28.340947	4.186718	9.194680	18.909972	7.220570	187.415683	0.574753	3.815294	-6.832762	-10.799521	20.536681	8.260137	152.668429	11.381377	5.214589	-4.645528	-11.821909
0.163265	2.793511	-6.044207	90.041278	0.211539	0.740951	0.806906	9.299498	-1.290291	26.108248	0.438602	0.007655	26.646020	-16.807399	0.000000	13.006006	-2.968312	-14.603607	11.352241	0.198134	40.537526	14.828271	0.000000	0.567190	0.065491	1.323550	1.053329	0.087103	1.406271	0.931837	0.159235	1.406271	0.648242	0.159235	1.158106	0.526693	0.133550	1.075384	0.324093	0.101446	0.992662	4.051385	0.740849	7.361185	0.000000	0.000000	28.349572	3.973060	8.536375	18.828791	7.204296	188.079565	0.600835	3.947460	-7.156477	-10.833526	20.367593	8.719405	158.872737	10.486688	5.005622	-4.906030	-11.729562
0.183673	2.771575	-5.911535	89.771910	0.212066	0.741410	0.805706	9.173423	-1.267902	26.268636	0.426537	0.007444	26.776326	-16.695498	0.000000	12.645911	-2.956418	-14.622631	11.057252	0.192985	40.452453	14.569772	0.000000	0.569066	0.060998	1.410357	1.056813	0.081128	1.498504	0.934919	0.148311	1.498504	0.650386	0.148311	1.234062	0.528435	0.124388	1.145915	0.325164	0.094486	1.057767	4.064783	0.690024	7.843981	0.000000	0.000000	28.357184	3.728356	7.945595	18.734720	7.171929	188.574951	0.659728	4.043385	-7.399616	-10.868908	20.150218	9.262201	166.137329	9.382197	4.707324	-5.173972	-11.616863
0.204082	2.753847	-5.768891	89.490537	0.212605	0.741914	0.804418	9.037979	-1.238288	26.435152	0.416311	0.007266	26.897378	-16.578951	0.000000	12.262673	-2.946509	-14.611387	10.746626	0.187564	40.343776	14.237902	0.000000	0.570581	0.057378	1.501629	1.059626	0.076313	1.595481	0.937408	0.139510	1.595481	0.652117	0.139510	1.313926	0.529842	0.117006	1.220074	0.326030	0.088879	1.126222	4.075603	0.649075	8.351612	0.000000	0.000000	28.363689	3.464691	7.418401	18.631754	7.128620	188.919360	0.743049	4.103984	-7.567960	-10.907592	19.896273	9.852665	174.044814	8.143990	4.349604	-5.442451	-11.485483
0.224490	2.727159	-5.609069	89.249384	0.213064	0.742451	0.803056	8.862575	-1.226357	26.572498	0.412234	0.007195	26.966381	-16.483376	0.000000	11.858348	-2.913496	-14.528561	10.430791	0.182052	40.194953	13.808080	0.000000	0.570461	0.053556	1.577058	1.059403	0.071229	1.675624	0.937210	0.130215	1.675624	0.651980	0.130215	1.379925	0.529730	0.109211	1.281359	0.325961	0.082958	1.182793	4.074746	0.605833	8.771122	0.000000	0.000000	28.370626	3.214100	7.009906	18.493154	7.092818	189.054299	0.808162	4.171358	-7.737436	-10.956331	19.604005	10.388725	181.747332	6.951083	4.127164	-5.737650	-11.336235
0.244898	2.707043	-5.450620	89.091245	0.213437	0.742993	0.801732	8.685722	-1.216931	26.640581	0.409552	0.007148	27.064781	-16.382150	0.000000	11.486374	-2.877571	-14.429137	10.150718	0.177163	40.066179	13.478420	0.000000	0.569756	0.048181	1.637971	1.058094	0.064081	1.740345	0.936052	0.117148	1.740345	0.651174	0.117148	1.433225	0.529075	0.098251	1.330852	0.325559	0.074633	1.228479	4.069711	0.545035	9.109906	0.000000	0.000000	28.374189	3.058688	6.637601	18.242582	7.168146	191.077883	0.383494	4.117091	-8.081184	-11.172370	19.275478	10.904831	189.336982	5.756861	3.850750	-5.888714	-11.259503
0.265306	2.657805	-5.299499	89.018844	0.213785	0.743522	0.800463	8.510492	-1.244703	26.662135	0.408547	0.007130	27.194673	-16.294079	0.000000	11.140203	-2.793321	-14.186145	9.877382	0.172393	39.905445	13.076732	0.000000	0.568165	0.037827	1.679017	1.055139	0.050309	1.783956	0.933438	0.091971	1.783956	0.649355	0.091971	1.469140	0.527598	0.077136	1.364202	0.324649	0.058593	1.259263	4.058343	0.427901	9.338191	0.000000	0.000000	28.374749	2.997633	6.356592	18.070300	7.459826	193.855695	-0.237086	3.730528	-8.120375	-11.737670	18.882667	11.334282	197.166265	4.552700	3.588937	-5.988073	-11.027862
0.285714	2.638069	-5.164805	89.023544	0.213951	0.743987	0.799300	8.348466	-1.254704	26.619761	0.409206	0.007142	27.325546	-16.212683	0.000000	10.838013	-2.711362	-13.731490	9.620632	0.167912	39.719583	12.499647	0.000000	0.566513	0.032668	1.698852	1.052071	0.043449	1.805030	0.930724	0.079429	1.805030	0.647468	0.079429	1.486495	0.526064	0.066617	1.380317	0.323706	0.050603	1.274139	4.046546	0.369548	9.448505	0.000000	0.000000	28.372406	2.944386	6.203248	17.973311	7.625517	194.878456	-0.462793	3.529217	-7.866950	-12.156904	18.544603	11.873188	205.423222	3.211378	3.217575	-6.084766	-10.745855
0.306122	2.666443	-5.048770	89.147449	0.213879	0.744314	0.798257	8.196002	-1.237033	26.511546	0.413297	0.007213	27.463221	-16.153535	0.000000	10.591346	-2.642254	-13.031754	9.381965	0.163746	39.535854	11.761027	0.000000	0.565406	0.033362	1.696475	1.050016	0.044372	1.802505	0.928906	0.081117	1.802505	0.646203	0.081117	1.484416	0.525036	0.068032	1.378386	0.323073	0.051678	1.272356	4.038639	0.377399	9.435287	0.000000	0.000000	28.370069	2.814022	5.937486	17.898944	7.608226	194.090367	-0.245218	3.533629	-7.505432	-12.299517	18.323950	12.147426	210.080287	2.511546	2.930074	-6.221574	-10.398549
